Patient5_TMGait_0pt45_1_right_10_GRF.mot
version=1
nRows=39
nColumns=19
inDegrees=no
endheader
time	F1x	F1y	F1z	M1x	M1y	M1z	F2x	F2y	F2z	M2x	M2y	M2z	EC1x	EC1y	EC1z	EC2x	EC2y	EC2z
16.32	1.533	846.7691	10.8015	-335.0942	-14.3928	869.4536	-7.5014	-1.332	3.742	-0.70413	-1.7331	-8.4475	-0.0592	0.0182	-0.0073	-0.0462	0.0165	0.9585
16.3371	0.98184	850.8318	11.6058	-337.754	-14.4393	870.1743	-4.2718	-0.49368	2.292	-0.29746	-1.1277	-4.6256	-0.0592	0.0182	-0.0073	-0.0462	0.0165	0.9585
16.3543	1.0306	856.6945	12.3583	-340.999	-14.4127	872.0675	-1.7596	0.17106	1.184	0.019344	-0.68526	-1.6552	-0.0592	0.0182	-0.0073	-0.0462	0.0165	0.9585
16.3714	1.6507	863.9402	13.0974	-344.5725	-14.4092	874.9357	-0.11661	0.62188	0.4744	0.23044	-0.41835	0.30042	-0.0592	0.0182	-0.0073	-0.0462	0.0165	0.9585
16.3886	2.6988	871.7935	13.9131	-348.1528	-14.533	878.1716	0.78092	0.88423	0.094326	0.35143	-0.28501	1.3851	-0.0592	0.0182	-0.0073	-0.0462	0.0165	0.9585
16.4057	4.0262	879.4114	14.8874	-351.4327	-14.8558	881.0244	1.1514	1.0114	-0.059476	0.41034	-0.23564	1.8522	-0.0592	0.0182	-0.0073	-0.0462	0.0165	0.9585
16.4229	5.5057	886.1358	16.0791	-354.1941	-15.4063	882.8538	1.2022	1.0682	-0.080198	0.43497	-0.22579	1.9704	-0.0592	0.0182	-0.0073	-0.0462	0.0165	0.9585
16.44	7.0676	891.6085	17.489	-356.3404	-16.1408	883.2772	1.0934	1.1091	-0.039653	0.44689	-0.22262	1.942	-0.0592	0.0182	-0.0073	-0.0462	0.0165	0.9585
16.4571	8.7247	895.679	19.0495	-357.8421	-16.9399	882.0975	0.92543	1.1711	0.019753	0.46275	-0.21317	1.8943	-0.0592	0.0182	-0.0073	-0.0462	0.0165	0.9585
16.4743	10.5686	898.2038	20.6875	-358.641	-17.6685	879.1047	0.75774	1.2577	0.070206	0.4871	-0.19274	1.8653	-0.0592	0.0182	-0.0073	-0.0462	0.0165	0.9585
16.4914	12.7122	898.9565	22.3908	-358.617	-18.2556	874.0382	0.61391	1.3259	0.10072	0.50756	-0.1663	1.8216	-0.0592	0.0182	-0.0073	-0.0462	0.0165	0.9585
16.5086	15.2543	897.6838	24.1988	-357.6266	-18.6939	866.6534	0.48712	1.2887	0.1158	0.49531	-0.14047	1.6827	-0.0592	0.0182	-0.0073	-0.0462	0.0165	0.9585
16.5257	18.2533	894.2611	26.1563	-355.5738	-19.0037	856.8712	0.36339	1.0226	0.12309	0.40392	-0.11872	1.3186	-0.0592	0.0182	-0.0073	-0.0462	0.0165	0.9585
16.5429	21.731	888.778	28.3193	-352.4655	-19.2447	844.8381	0.24476	0.36636	0.13596	0.16892	-0.11071	0.56806	-0.0592	0.0182	-0.0073	-0.0462	0.0165	0.9585
16.56	25.6624	881.593	30.7721	-348.4707	-19.5404	830.9771	0.1721	-0.8384	0.17102	-0.27419	-0.14603	-0.74056	-0.0592	0.0182	-0.0073	-0.0462	0.0165	0.9585
16.5771	29.9513	873.2893	33.5631	-343.9219	-20.0243	815.9643	0.21642	-2.6617	0.23703	-0.96003	-0.26297	-2.6837	-0.0592	0.0182	-0.0073	-0.0462	0.0165	0.9585
16.5943	34.4501	864.5626	36.5723	-339.2534	-20.7077	800.582	0.47358	-4.9862	0.33709	-1.8533	-0.4965	-5.1411	-0.0592	0.0182	-0.0073	-0.0462	0.0165	0.9585
16.6114	39.0019	856.122	39.4829	-334.9027	-21.4177	785.5989	1.0645	-7.3297	0.45113	-2.7766	-0.86846	-7.6099	-0.0592	0.0182	-0.0073	-0.0462	0.0165	0.9585
16.6286	43.5379	848.5918	41.9327	-331.2019	-21.8638	771.6225	2.102	-8.5838	0.52366	-3.3086	-1.3653	-8.8914	-0.0592	0.0182	-0.0073	-0.0462	0.0165	0.9585
16.6457	48.0796	842.3209	43.7505	-328.2803	-21.8408	758.9427	3.6188	-6.7481	0.45066	-2.6836	-1.8786	-6.8045	-0.0592	0.0182	-0.0073	-0.0462	0.0165	0.9585
16.6629	52.7001	837.071	44.9746	-325.9706	-21.2826	747.3135	5.4587	1.1537	0.067896	0.24578	-2.1628	1.8823	-0.0592	0.0182	-0.0073	-0.0462	0.0165	0.9585
16.68	57.4671	831.8935	45.7119	-323.8007	-20.1865	735.8674	7.1176	18.8058	-0.82791	6.9133	-1.7893	21.1328	-0.0592	0.0182	-0.0073	-0.0462	0.0165	0.9585
16.6971	62.4143	825.327	45.9644	-321.0971	-18.4874	723.2915	7.5445	49.6953	-2.4215	18.7023	-0.13598	54.6736	-0.0592	0.0182	-0.0073	-0.0462	0.0165	0.9585
16.7143	67.4659	815.676	45.5513	-317.1151	-16.0223	708.1289	5.1717	95.3483	-4.7835	36.273	3.4868	104.0994	-0.0592	0.0182	-0.0073	-0.0462	0.0165	0.9585
16.7314	72.3257	801.1663	44.1791	-311.1162	-12.6403	688.9707	-0.816	153.6711	-7.3846	58.8798	8.8525	167.1533	-0.0592	0.0182	-0.0073	-0.0462	0.0165	0.9585
16.7486	76.5158	780.1341	41.6332	-302.455	-8.3617	664.595	-9.7976	217.8663	-9.378	83.9044	14.7588	236.4928	-0.0592	0.0182	-0.0073	-0.0462	0.0165	0.9585
16.7657	79.5429	751.4778	37.9077	-290.7445	-3.4289	634.3212	-19.9814	278.6549	-11.0186	107.5841	20.6792	302.1155	-0.0592	0.0182	-0.0073	-0.0462	0.0165	0.9585
16.7829	81.1139	714.9739	33.2817	-275.9597	1.7347	598.2045	-29.4022	327.4756	-14.214	126.3298	27.7238	354.7546	-0.0592	0.0182	-0.0073	-0.0462	0.0165	0.9585
16.8	81.2009	671.2174	28.2499	-258.377	6.6376	556.9438	-36.5916	361.9598	-19.2247	139.1556	35.6035	391.6618	-0.0592	0.0182	-0.0073	-0.0462	0.0165	0.9585
16.8171	79.9755	621.1251	23.3771	-238.378	10.829	511.4211	-41.126	385.0092	-24.6548	147.3671	42.8137	415.6929	-0.0592	0.0182	-0.0073	-0.0462	0.0165	0.9585
16.8343	77.5508	565.6712	18.9662	-216.3691	14.0711	462.5129	-43.2351	401.2428	-28.7785	153.0226	47.7584	431.5647	-0.0592	0.0182	-0.0073	-0.0462	0.0165	0.9585
16.8514	73.841	505.888	14.9493	-192.8029	16.365	411.1147	-43.1934	415.5049	-30.7646	158.2019	49.7187	444.2309	-0.0592	0.0182	-0.0073	-0.0462	0.0165	0.9585
16.8686	68.6256	442.9574	11.086	-168.1994	17.8055	358.1929	-41.2493	432.0977	-30.9551	164.6553	49.106	458.0866	-0.0592	0.0182	-0.0073	-0.0462	0.0165	0.9585
16.8857	61.7088	378.3045	7.2522	-143.144	18.4172	304.8279	-37.8652	454.5437	-30.0221	173.7544	46.7551	476.7527	-0.0592	0.0182	-0.0073	-0.0462	0.0165	0.9585
16.9029	53.1063	313.7402	3.617	-118.3228	18.0906	252.322	-33.6506	485.6508	-28.5635	186.5491	43.4978	503.1253	-0.0592	0.0182	-0.0073	-0.0462	0.0165	0.9585
16.92	43.1469	251.568	0.57198	-94.58	16.6783	202.2998	-29	527.1737	-27.2833	203.6331	40.1771	538.9666	-0.0592	0.0182	-0.0073	-0.0462	0.0165	0.9585
16.9371	32.5218	194.3409	-1.5405	-72.847	14.2087	156.5451	-23.9545	579.266	-26.9022	224.9427	37.5036	584.3688	-0.0592	0.0182	-0.0073	-0.0462	0.0165	0.9585
16.9543	22.1565	144.2169	-2.6371	-53.9108	10.9924	116.5632	-18.4262	640.2017	-27.8264	249.6856	35.8293	637.5799	-0.0592	0.0182	-0.0073	-0.0462	0.0165	0.9585
16.9714	12.884	102.4595	-2.8735	-38.2209	7.4956	83.2337	-12.4811	706.4776	-30.1361	276.3923	35.2525	695.1827	-0.0592	0.0182	-0.0073	-0.0462	0.0165	0.9585
